<?xml version="1.0" encoding="utf-8"?>
<!-- Generator: Adobe Illustrator 18.1.0, SVG Export Plug-In . SVG Version: 6.00 Build 0)  -->
<svg version="1.1" id="Layer_1" xmlns="http://www.w3.org/2000/svg" xmlns:xlink="http://www.w3.org/1999/xlink" x="0px" y="0px"
	 viewBox="0 0 505.6 309.1" enable-background="new 0 0 505.6 309.1" xml:space="preserve">
<g>
	<path d="M185.3,186.5c-36.8,0-66.7-39-66.7-87s29.9-87,66.7-87s66.7,39,66.7,87S222,186.5,185.3,186.5z M185.3,24.5
		c-30.1,0-54.7,33.6-54.7,75s24.5,75,54.7,75c30.1,0,54.7-33.6,54.7-75S215.4,24.5,185.3,24.5z"/>
</g>
<g>
	<path d="M311.2,186.5c-36.8,0-66.7-39-66.7-87s29.9-87,66.7-87c36.8,0,66.7,39,66.7,87S348,186.5,311.2,186.5z M311.2,24.5
		c-30.1,0-54.7,33.6-54.7,75s24.5,75,54.7,75s54.7-33.6,54.7-75S341.3,24.5,311.2,24.5z"/>
</g>
<circle cx="215.8" cy="115.3" r="22.2"/>
<circle cx="341.3" cy="121.8" r="22.2"/>
<g>
	<path d="M128.7,129.2l0.2,1.4v0.5l-0.1,3.9c-0.3,24.5-8.1,39.9-23.6,46.4c-4.7,2-10.2,2.9-16.4,2.9c-8.5,0-16.7-3.8-24.8-11.4
		l-3.6,2.5l-3.3,6.5H17.5l-0.1-60.4V61.2C28,61.1,43.4,61,63.8,61c0.1,4.9,0.2,10.7,0.2,17.5c0,6.8-0.1,13.3-0.2,19.4
		c4.5-3.9,9.4-6.9,14.5-9.1c5.1-2.2,10-3.3,14.6-3.3c8.8,0,16.2,3,22.2,9c1.2,1,2.1,2,2.7,2.9c0.6,1,1.1,1.6,1.4,1.9v-0.1l0.8,0.6
		c3.1,4.2,5.7,9.7,7.5,16.4c0.9,4,1.4,7,1.4,9S128.8,128.7,128.7,129.2z M80.9,138.3c0-5-0.5-9.5-1.5-13.5
		c-1.9-7.6-4.7-11.5-8.5-11.5c-3.1,0-5.5,2.4-7.2,7.3c-1.7,4.9-2.6,11.7-2.6,20.4c0,6,1.5,11.2,4.6,15.6c1.7,2.3,3.4,3.5,5.2,3.5
		c1.8,0,3.4-0.7,4.8-2.1c1.3-1.4,2.5-3.6,3.6-6.8c1.1-3.2,1.6-5.8,1.6-7.7c0-2,0-3.1-0.1-3.2v-0.2c0.1-0.2,0.1-0.5,0.1-0.9V138.3z"
		/>
	<path d="M480.8,88.8l1.5,0.1h6c0.3,0,0.8,0,1.4-0.1c0.6-0.1,1.1-0.1,1.5-0.1c-0.5,2.4-2,5.7-4.6,9.8c-0.9,1-1.7,2.3-2.4,3.7v-0.1
		c-2.6,4-7.6,12.3-14.9,24.9c3.7,8,7.1,15.1,10.1,21.2c3,6.1,5.3,10.9,7,14.3l9.4,19.1h-53.3l-5.3-15.9c-2.2-6.3-4.8-14.6-8-24.9
		l-2.9,6.7v34.1c-5,0.2-13,0.2-23.9,0.2c-10.9,0-19.5-0.1-25.7-0.2V60.1h24.6l24.6-0.1c0,6.2,0.1,17.5,0.2,33.7
		c0.1,16.2,0.2,27.6,0.2,34.1l2.9-8.7c1.9-5.9,5.3-16.1,10.2-30.3H480.8z"/>
	<path d="M53.9,268.9c0,5.5,0.1,9.4,0.2,11.8v5.3l0.1,1c0,2-0.1,2.9-0.2,2.9c-0.1,0-4.5,0.2-13.1,0.7c-8.6,0.4-17.1,0.7-25.7,0.7
		l-1.8-2.8c-0.1-0.5-0.1-1.1-0.1-1.9l0.2-8.1v-4.2c0-11.3,0.4-17.3,1.1-18.1c12.1,0.1,21.2,0.2,27.4,0.2h3.6l1.8-0.1
		c4.1,0,6.2,0.2,6.2,0.7L53.9,268.9z"/>
	<path d="M118.3,291l-6.2,0.4c-3.1,0-6.2-0.4-9.3-1.1c-2.1,0-4.9-0.5-8.4-1.6c-11.8-2.8-20.5-7.6-26.3-14.5l-1.4-1.6
		c-4.5-5.8-7.4-13.5-8.7-23.3l-0.2-1.6c-0.2-1.7-0.3-3.6-0.3-5.9c0-2.3,0.4-5.4,1.3-9.3c3.3-14.5,10.1-24.5,20.5-30l10.5-5.6
		c7.7-2.8,17.4-4.2,29-4.2c4.4,0,8.4,0.6,12.2,1.7l1.5,0.5c-0.1,0-0.1,0-0.1-0.1h0.2c17.5,4.6,29.1,12.3,34.9,23.1l0.2,0.5
		c2.6,5.2,4.3,11,5.2,17.5l-1.8-0.6h-48.5l-0.4-2.9c-0.8-5.9-2.2-9.9-4.2-11.8l-1.5-0.9c-4.5,0.3-7.1,6.5-7.7,18.6
		c-0.1,1.7-0.1,2.6-0.2,2.9l0.1,2.5l0.2,4.5c0,0.4,0,0.7,0.1,1.2l0.8,0.8h-0.9c0.3,3.9,1.1,6.8,2.4,8.9c1.4,2.1,2.7,3.1,4.1,3.1
		c2.6,0,4.4-1.6,5.4-4.8c1-3.2,1.5-6.1,1.5-8.7c4-0.2,10-0.3,18-0.3h2.9l7.4,0.1h7.4l14.9,0.1c-1.6,16.6-9.4,28.3-23.5,35.1
		c-1,0.4-2.5,1-4.3,1.8l-2.9,1.4c-8.2,3.1-15.7,4.7-22.5,4.7C119.1,291.3,118.6,291.2,118.3,291z"/>
	<path d="M176.9,167l19.7-0.1c6,0,15.3,0.1,27.9,0.2v121.5h-47.4L176.9,167z"/>
	<path d="M278.2,203.4l-0.2,49.2c0,5.3,1.9,7.9,5.7,7.9c3.1,0,4.7-2.8,4.7-8.4v-56l25.5-0.1h25.2l0.1,92.5h-43.4l-3.6-12.5
		c-6.6,10.3-15.7,15.4-27.2,15.4c-9.9,0-18.2-2.8-25-8.5l0.1-0.5c-0.9-0.3-2-1.2-3.3-2.8c-1.3-1.6-2.3-3-2.9-4.2
		c-3.4-6.1-5-15-5-26.9l0.1-2.5v-49.9h24.6l24.6-0.1V203.4z"/>
	<path d="M456.1,236.2l0.2,1.4v0.5l-0.1,3.9c-0.3,24.5-8.1,39.9-23.6,46.4c-4.7,2-10.2,2.9-16.4,2.9c-8.5,0-16.7-3.8-24.8-11.4
		l-3.6,2.5l-3.3,6.5h-39.6l-0.1-60.4v-60.4c10.6-0.1,26-0.2,46.4-0.2c0.1,4.9,0.2,10.7,0.2,17.5c0,6.8-0.1,13.3-0.2,19.4
		c4.5-3.9,9.4-6.9,14.5-9.1c5.1-2.2,10-3.3,14.6-3.3c8.8,0,16.2,3,22.2,9c1.2,1,2.1,2,2.7,2.9c0.6,1,1.1,1.6,1.4,1.9v-0.1l0.8,0.6
		c3.1,4.2,5.7,9.7,7.5,16.4c0.9,4,1.4,7,1.4,9S456.1,235.7,456.1,236.2z M408.2,245.3c0-5-0.5-9.5-1.5-13.5
		c-1.9-7.6-4.7-11.5-8.5-11.5c-3.1,0-5.5,2.4-7.2,7.3c-1.7,4.9-2.6,11.7-2.6,20.4c0,6,1.5,11.2,4.6,15.6c1.7,2.3,3.4,3.5,5.2,3.5
		c1.8,0,3.4-0.7,4.8-2.1c1.3-1.4,2.5-3.6,3.6-6.8c1.1-3.2,1.6-5.8,1.6-7.7c0-2,0-3.1-0.1-3.2v-0.2c0.1-0.2,0.1-0.5,0.1-0.9V245.3z"
		/>
</g>
</svg>
